<?xml version="1.0" standalone="no"?>
<!DOCTYPE svg PUBLIC "-//W3C//DTD SVG 20010904//EN"
 "http://www.w3.org/TR/2001/REC-SVG-20010904/DTD/svg10.dtd">
<svg version="1.0" xmlns="http://www.w3.org/2000/svg"
 width="512.000000pt" height="512.000000pt" viewBox="0 0 512.000000 512.000000"
 preserveAspectRatio="xMidYMid meet">
<metadata>
Created by potrace 1.14, written by Peter Selinger 2001-2017
</metadata>
<g transform="translate(0.000000,512.000000) scale(0.100000,-0.100000)"
fill="#000000" stroke="none">
<path d="M2363 4923 c-523 -524 -970 -1080 -1270 -1583 -105 -176 -273 -521
-329 -675 -60 -167 -110 -366 -129 -511 -45 -346 16 -718 171 -1043 103 -217
198 -354 364 -525 275 -284 614 -471 1010 -558 96 -21 130 -23 390 -23 260 0
294 2 385 23 611 138 1096 515 1360 1057 217 447 253 927 105 1425 -174 583
-641 1317 -1304 2050 -160 176 -443 467 -508 521 l-47 40 -198 -198z m527
-2418 l0 -245 245 0 245 0 0 -325 0 -325 -245 0 -245 0 0 -240 0 -240 -325 0
-325 0 0 240 0 240 -245 0 -245 0 0 325 1 325 245 0 244 0 0 245 0 245 325 0
325 0 0 -245z"/>
</g>
</svg>
